<?xml version="1.0" encoding="utf-8"?>
<!-- Generator: Adobe Illustrator 18.1.1, SVG Export Plug-In . SVG Version: 6.00 Build 0)  -->
<svg version="1.1" id="图层_1" xmlns="http://www.w3.org/2000/svg" xmlns:xlink="http://www.w3.org/1999/xlink" x="0px" y="0px"
	 viewBox="0 0 252 88.5" enable-background="new 0 0 252 88.5" xml:space="preserve">
<g id="XMLID_839_">
	<g id="XMLID_848_">
		<polygon id="XMLID_880_" fill="#040000" points="92.7,34.5 82.8,34.5 83.3,31.2 93.2,31.2 		"/>
		<polygon id="XMLID_879_" fill="#040000" points="89.1,60.3 79.2,60.3 79.6,56.9 89.6,56.9 		"/>
		<polygon id="XMLID_878_" fill="#040000" points="91.1,46.4 81.2,46.4 81.6,43.1 91.6,43.1 		"/>
		<polygon id="XMLID_877_" fill="#040000" points="87.1,57.6 81.8,57.6 85.4,32.9 90.7,32.9 		"/>
		<polygon id="XMLID_876_" fill="#040000" points="117.1,34.5 107.1,34.5 108.7,31.2 117.6,31.2 		"/>
		<polygon id="XMLID_875_" fill="#040000" points="104.8,33 96,33 97.7,29.7 106.5,29.7 		"/>
		<polygon id="XMLID_874_" fill="#040000" points="228.2,33 216.1,33 217.7,29.7 229.9,29.7 		"/>
		<polygon id="XMLID_873_" fill="#040000" points="104.5,37.6 93.1,37.6 93.6,34.5 105,34.5 		"/>
		<polygon id="XMLID_872_" fill="#040000" points="210.4,34.5 199.3,34.5 199.8,31.2 210.8,31.2 		"/>
		<polygon id="XMLID_871_" fill="#040000" points="233.5,37.8 211.1,37.8 211.6,34.4 233.9,34.4 		"/>
		<polygon id="XMLID_870_" fill="#040000" points="193.6,34.5 161.3,34.5 161.8,31.2 194,31.2 		"/>
		<polygon id="XMLID_869_" fill="#040000" points="209.1,46.4 198,46.4 198.5,43.1 209.5,43.1 		"/>
		<polygon id="XMLID_868_" fill="#040000" points="231.9,60.3 207.1,60.3 207.6,56.9 232.4,56.9 		"/>
		<polygon id="XMLID_867_" fill="#040000" points="113.4,60.3 103.5,60.3 104,56.9 113.9,56.9 		"/>
		<polygon id="XMLID_866_" fill="#040000" points="115.4,46.4 105.5,46.4 106,43.1 115.9,43.1 		"/>
		<polygon id="XMLID_865_" fill="#040000" points="111.5,57.6 106.2,57.6 109.7,32.9 115,32.9 		"/>
		<polygon id="XMLID_864_" fill="#040000" points="176.8,60.3 171.3,60.3 175.7,29.7 181.2,29.7 		"/>
		<polygon id="XMLID_863_" fill="#040000" points="218.8,58.8 213.6,58.8 212.4,40.1 217.7,40.1 		"/>
		<polygon id="XMLID_862_" fill="#040000" points="220,58.8 225.3,58.8 231.5,40.1 226.5,40.1 		"/>
		<path id="XMLID_861_" fill="#040000" d="M203,29.7l-3,23.5c-0.2,1.2-0.3,2.1-1.7,2.9l-3.1,2.1l3.4,3.4l2.6-1.7
			c3.8-2.4,3.8-2.9,4.2-6.1l3.3-24.1H203z"/>
		<polygon id="XMLID_860_" fill="#040000" points="152.6,34.5 124,34.5 124.9,31.2 153.1,31.2 		"/>
		<polygon id="XMLID_859_" fill="#040000" points="150.9,41.4 144.9,41.4 148.3,29.7 154.3,29.7 		"/>
		<path id="XMLID_858_" fill="#040000" d="M130.9,37.3h-5.7l-2.8,10.1h28.8l0.5-3.3c0,0-21.1,0-22.5,0L130.9,37.3z"/>
		<polygon id="XMLID_857_" fill="#040000" points="94.9,60.3 89.8,60.3 102.9,34.5 108,34.5 		"/>
		<polygon id="XMLID_856_" fill="#040000" points="97.9,39.2 93.6,39.2 98.4,60.3 103,60.3 		"/>
		<polygon id="XMLID_855_" fill="#040000" points="192.9,47.3 158.5,47.3 159,44 193.3,44 		"/>
		<polygon id="XMLID_854_" fill="#040000" points="162.9,60.3 156.5,60.3 165.5,46 171.3,46.3 		"/>
		<polygon id="XMLID_853_" fill="#040000" points="168.1,36.3 163.1,36.3 166.1,46.6 171.3,46.2 		"/>
		<polygon id="XMLID_852_" fill="#040000" points="185.7,36.3 191.3,36.3 185.6,46.6 180,46.2 		"/>
		<path id="XMLID_851_" fill="#040000" d="M148.9,42.8l-2.4,10.7c-0.4,1.7-0.6,2.3-1.8,2.9l-3.4,1.4l3.6,3.6l3-1.2
			c3.8-1.6,3.9-3,4.6-6.3l2.5-11.1H148.9z"/>
		<polygon id="XMLID_850_" fill="#040000" points="142.9,54.2 118.5,54.2 119.5,50.8 143.8,50.8 		"/>
		<polygon id="XMLID_849_" fill="#040000" points="185,60.3 190.4,60.3 186.7,48.9 181.2,48.9 		"/>
	</g>
	<g id="XMLID_840_">
		
			<rect id="XMLID_847_" x="38.6" y="54.3" transform="matrix(-0.7071 0.7071 -0.7071 -0.7071 130.5107 73.9465)" fill="#1FB6C4" width="22.8" height="19.4"/>
		<g id="XMLID_841_">
			
				<rect id="XMLID_846_" x="23.8" y="41.5" transform="matrix(0.7073 -0.7069 0.7069 0.7073 -29.5823 34.2357)" fill="#040000" width="5.5" height="22.8"/>
			
				<rect id="XMLID_845_" x="30.9" y="34.4" transform="matrix(0.7071 -0.7071 0.7071 0.7071 -22.5083 37.1867)" fill="#040000" width="5.5" height="22.8"/>
			
				<rect id="XMLID_844_" x="38" y="27.3" transform="matrix(0.7071 -0.7071 0.7071 0.7071 -15.4276 40.1196)" fill="#040000" width="5.5" height="22.8"/>
			
				<rect id="XMLID_843_" x="45.1" y="20.2" transform="matrix(0.7072 -0.707 0.707 0.7072 -8.3494 43.0439)" fill="#040000" width="5.5" height="22.8"/>
			<polygon id="XMLID_842_" fill="#040000" points="64.8,30.6 61,34.5 44.9,18.4 44.9,10.7 			"/>
		</g>
	</g>
</g>
</svg>
