<svg xmlns="http://www.w3.org/2000/svg" viewBox="0 0 255.118 255.118">
  <path fill="#3DAB53" d="M127.863 154.198c-14.587.098-26.527-9.521-27.333-27.425-.75-16.659 13.75-27.909 27.704-28.242 16.042-.383 25.629 18 25.629 18l41.332-15.333s-17-44.334-62.999-44.334c-43 0-72.668 30-72.666 70.667.001 36.154 28 72.333 71.666 70.667 47.964-1.832 64.393-44.267 64.393-44.267l-42.393-14.067s-8.654 14.334-25.333 14.334"/>
  <path fill="none" stroke="#3DAB53" stroke-width="5" stroke-miterlimit="10" d="M127.863 154.198c-14.587.098-26.527-9.521-27.333-27.425-.75-16.659 13.75-27.909 27.704-28.242 16.042-.383 25.629 18 25.629 18l41.332-15.333s-17-44.334-62.999-44.334c-43 0-72.668 30-72.666 70.667.001 36.154 28 72.333 71.666 70.667 47.964-1.832 64.393-44.267 64.393-44.267l-42.393-14.067s-8.654 14.334-25.333 14.334"/>
</svg>
