<svg xmlns="http://www.w3.org/2000/svg" viewBox="0 0 131.72 39.46"><defs><style>.cls-1{fill:#fff;}.cls-1,.cls-2{fill-rule:evenodd;}.cls-2{fill:#f26600;}</style></defs><g id="图层_2" data-name="图层 2"><g id="图层_1-2" data-name="图层 1"><g id="图层_2-2" data-name="图层 2"><g id="图层_1-2-2" data-name="图层 1-2"><path class="cls-1" d="M60.71,12c-.19.88-.41,1.74-.65,2.6a17.58,17.58,0,0,1-.87,2.43l-3-1.26a20.82,20.82,0,0,0,1.11-3.46c.3-1.27.54-2.47.71-3.6s.3-2.08.37-2.84l.1-1.15L61.67,5a8.71,8.71,0,0,1-.1,1.16c-.1.72-.12,1.66-.29,2.66H63.9v-5h3.23v5H71v3.23H67.09L67,24.65l4.09-1,.77,3.11L67,28v7.61H63.82V28.82l-5.23,1.29L57.77,27l6-1.51V12ZM72,25.12s.32-.48,1-1.37a27.65,27.65,0,0,0,2.14-3.46,47.19,47.19,0,0,0,2.37-4.78,23.3,23.3,0,0,0,1.66-5.36h-3a29.63,29.63,0,0,1-1.18,3,17.14,17.14,0,0,1-1.72,3l-2.74-1.83a15.52,15.52,0,0,0,1.86-3.45,30.56,30.56,0,0,0,1.15-3.38,24.56,24.56,0,0,0,.59-2.57c.11-.69.16-1,.16-1.07l3.19.37a4.07,4.07,0,0,1-.1.82c-.1.49-.2,1.12-.39,1.88H93.3v22h0v4.72a1.87,1.87,0,0,1-1.59,1.88H87.56V32.74h.85a1.68,1.68,0,0,0,1.7-1.31h0V10.15H89a30.48,30.48,0,0,1-1.41,6.55,47.93,47.93,0,0,1-2.37,5.91,46.08,46.08,0,0,1-2.78,5q-1.45,2.27-2.7,3.94c-.83,1.12-1.52,2-2.08,2.64a10.91,10.91,0,0,1-1,1.08l-1.19-1.1-1.14-1.1.77-.9c.49-.58,1.12-1.37,1.88-2.4s1.6-2.23,2.5-3.64a48,48,0,0,0,2.67-4.61,42,42,0,0,0,2.24-5.42,29.88,29.88,0,0,0,1.39-6H82.35a24.9,24.9,0,0,1-1,4A35.7,35.7,0,0,1,79.83,18c-.55,1.22-1.13,2.37-1.73,3.45s-1.16,2-1.68,2.8-1,1.43-1.29,1.92a4.74,4.74,0,0,1-.59.82l-1.27-1Zm28.52-20.3a.71.71,0,0,1,.69-.7h30.52v31.1a.69.69,0,0,1-.69.69H100.51Zm3,3A.53.53,0,0,1,104,7.3h24.75V32.4a.51.51,0,0,1-.59.42H103.47Zm17.11,15.34-7-1.87-.77,2.9,7,1.87Zm-9.88,2.32,11.6,3.1-.78,2.9L110,28.38Zm-2.27-10.35a12.7,12.7,0,0,0,1.12-1.42h12.13q-.87.51-2.19,1.17t-3.09,1.41L110,14.18l-.8,2.48,3.27,1.1c-1,.33-2.14.66-3.29,1s-2.39.61-3.73.9l.57,2.57c1.14-.24,2.2-.5,3.19-.77s2-.54,2.89-.83l.77-.2,1.89-.65c.61-.21,1.2-.43,1.75-.65l9.86,3.24.83-2.51-7.08-2.31a32.79,32.79,0,0,0,3.63-2l1.32-.87.5-.4V11H111.3c.15-.29.28-.51.36-.68a.71.71,0,0,0,.14-.32l-2.37-1.1-.29.57c-.19.37-.46.84-.82,1.4a17.73,17.73,0,0,1-1.28,1.8,12.59,12.59,0,0,1-1.69,1.81l1.77,2a13.52,13.52,0,0,0,1.31-1.42Z"/><path class="cls-2" d="M38.72.3A1.63,1.63,0,0,0,37,.22L8.35,16.64A1.64,1.64,0,0,1,6.11,16a1.61,1.61,0,0,1-.22-.81v-6a1.64,1.64,0,0,0-1.6-1.67,1.72,1.72,0,0,0-.84.21L.82,9.25A1.6,1.6,0,0,0,0,10.7V37.77A1.64,1.64,0,0,0,1.64,39.4a1.58,1.58,0,0,0,.82-.22L20.63,28.6a1.62,1.62,0,0,1,1.77.07l13.3,9.42A1.63,1.63,0,0,0,38,37.71a1.66,1.66,0,0,0,.31-1V29.81a1.66,1.66,0,0,0-.69-1.34l-2.82-2a1.07,1.07,0,0,0-1.49.26,1.13,1.13,0,0,0-.19.62,1.06,1.06,0,0,1-1.68.86l-9-6.41a1.64,1.64,0,0,0-1.78-.08L8.38,28.86a1.63,1.63,0,0,1-2.24-.59,1.58,1.58,0,0,1-.22-.82V25.8a1.63,1.63,0,0,1,.82-1.42L36.62,7.29a1.61,1.61,0,0,1,1.75.08l1,.72a1.65,1.65,0,0,1-.12,2.76l-9.42,5.5a1.63,1.63,0,0,0-.12,2.75l2.38,1.68a1.62,1.62,0,0,0,1.77.07L39,17.94a1.62,1.62,0,0,1,2.45,1.41V37.78a1.64,1.64,0,0,0,1.61,1.68,1.68,1.68,0,0,0,.85-.22l2.35-1.36A1.64,1.64,0,0,0,47,36.43V7a1.64,1.64,0,0,0-.7-1.34Z"/></g></g></g></g></svg>