<svg width="170" height="51" viewBox="0 0 170 51" fill="none" xmlns="http://www.w3.org/2000/svg">
<g clip-path="url(#clip0_311_1650)">
<path d="M10.6435 30.265C10.6435 30.265 10.4107 33.6153 15.0376 35.3985C19.5242 37.1146 19.9455 42.6576 18.105 42.2779C18.0459 42.2779 17.9831 42.2332 17.9202 42.2146C13.7515 40.975 9.92285 35.4729 9.92285 35.4729L10.6435 30.265Z" fill="#1F4584"/>
<path d="M18.109 42.2779C12.0296 40.9899 7.11809 37.874 3.64048 32.6549C0.926166 28.6967 -0.247239 23.8708 0.343956 19.0971C1.08309 12.8207 4.16896 7.84356 9.35396 4.25495C14.0654 0.903932 19.8876 -0.466105 25.5853 0.435536C27.675 0.756029 29.6239 1.69182 31.187 3.12522C32.7501 4.55861 33.8574 6.42558 34.3698 8.4913C35.7853 14.5964 31.7496 20.091 25.8698 21.2152C24.5727 21.4609 23.209 21.3381 21.8785 21.4014C17.0742 21.6247 13.4931 23.7317 11.5085 28.2212C9.80483 32.0853 10.8877 36.7833 14.0068 39.6571C15.2067 40.7719 16.5997 41.6551 18.1164 42.263" fill="#1172A9"/>
<path d="M45.0503 20.8467C45.0503 20.8467 45.2831 17.4963 40.6561 15.7095C36.1696 13.9934 35.7483 8.45036 37.5887 8.83379C37.6479 8.83379 37.7107 8.87474 37.7735 8.89335C41.9422 10.1255 45.7709 15.635 45.7709 15.635L45.0503 20.8467Z" fill="#A71F24"/>
<path d="M37.585 8.82261C43.6644 10.1106 48.5759 13.2265 52.0498 18.4456C54.7674 22.4065 55.941 27.2372 55.3463 32.0146C54.6072 38.2872 51.525 43.2644 46.34 46.853C41.6291 50.2053 35.8069 51.5767 30.1087 50.6761C28.019 50.3556 26.07 49.4198 24.507 47.9864C22.9439 46.553 21.8365 44.6861 21.3241 42.6203C19.9087 36.5115 23.9444 31.0206 29.8241 29.8964C31.1176 29.647 32.485 29.7698 33.8154 29.7065C38.5976 29.4832 42.2009 27.3799 44.1854 22.8867C45.8891 19.0226 44.8026 14.3247 41.6872 11.4508C40.4864 10.3373 39.0936 9.45413 37.5776 8.84494" fill="#E34528"/>
<path d="M73.5879 29.3194H92.5392C92.7664 29.3302 92.9934 29.2944 93.2065 29.2142C93.4196 29.134 93.6143 29.0111 93.7788 28.8529C93.9434 28.6948 94.0744 28.5046 94.1639 28.294C94.2534 28.0834 94.2995 27.8566 94.2995 27.6275C94.2995 27.3984 94.2534 27.1717 94.1639 26.961C94.0744 26.7504 93.9434 26.5602 93.7788 26.4021C93.6143 26.2439 93.4196 26.121 93.2065 26.0408C92.9934 25.9606 92.7664 25.9248 92.5392 25.9356H86.5005V17.7086H93.0529V14.321H86.5005V9.46294H93.064V6.07536H72.5088V9.46294H82.4686V25.9356H76.5555V14.321H72.5088V28.2287C72.5088 28.5173 72.6224 28.7942 72.8246 28.9987C73.0269 29.2031 73.3014 29.3185 73.5879 29.3194Z" fill="white"/>
<path d="M117.274 7.76914C117.273 7.54524 117.228 7.32382 117.141 7.11752C117.055 6.91123 116.929 6.72409 116.771 6.56681C116.613 6.40953 116.425 6.28517 116.219 6.20084C116.013 6.11652 115.793 6.07388 115.571 6.07535H99.7236V9.46293H115.571C115.793 9.46441 116.013 9.42176 116.219 9.33743C116.425 9.25311 116.613 9.12876 116.771 8.97147C116.929 8.81419 117.055 8.62705 117.141 8.42076C117.228 8.21446 117.273 7.99304 117.274 7.76914Z" fill="white"/>
<path d="M111.557 29.3194H119.07V25.9355H114.509V17.7085H119.085V14.3209H97.8346V17.7085H102.535C102.454 19.6345 102.095 21.5382 101.467 23.3595C100.712 25.3446 99.5829 27.1637 98.1413 28.7163L97.6055 29.3194H102.602C103.748 27.8325 104.666 26.1812 105.326 24.4204C106.068 22.2613 106.488 20.0031 106.571 17.7197H110.481V28.2398C110.484 28.5259 110.598 28.7994 110.8 29.0013C111.001 29.2032 111.273 29.3175 111.557 29.3194Z" fill="white"/>
<path d="M122.696 17.7085H126.295L126.617 17.3847C127.36 16.649 128.037 15.848 128.638 14.991C129.292 15.6851 129.888 16.4321 130.42 17.2246L130.745 17.7123H134.951L133.908 16.1004C133.056 14.7953 132.065 13.5882 130.952 12.5006H134.134V9.89475H130.893C130.981 9.52249 131.055 9.10928 131.122 8.69234H133.602V6.0865H128.258L128.513 5.02927H124.725L124.562 5.71424C124.417 6.32498 124.234 6.92559 124.011 7.51227L123.557 8.70723H127.375C127.304 9.11352 127.209 9.51507 127.09 9.90964H124.048C123.704 9.90766 123.373 10.0433 123.128 10.2869C122.882 10.5304 122.743 10.8619 122.74 11.2088C122.741 11.3807 122.776 11.5508 122.842 11.7092C122.908 11.8676 123.005 12.0112 123.127 12.1319C123.248 12.2526 123.392 12.348 123.55 12.4125C123.709 12.477 123.878 12.5095 124.048 12.508H126.022C125.294 13.777 124.374 14.9237 123.295 15.9068L122.334 16.804C122.26 16.8772 122.21 16.9708 122.189 17.0729C122.168 17.175 122.177 17.281 122.216 17.3777C122.255 17.4744 122.321 17.5574 122.406 17.6162C122.492 17.6751 122.592 17.7072 122.696 17.7085Z" fill="white"/>
<path d="M136.799 17.7086H143.244C143.531 17.7086 143.806 17.5936 144.01 17.3891C144.213 17.1845 144.327 16.9071 144.327 16.6178V7.16608C144.327 6.8768 144.213 6.59937 144.01 6.39482C143.806 6.19027 143.531 6.07536 143.244 6.07536H136.799C136.511 6.07536 136.236 6.19027 136.033 6.39482C135.83 6.59937 135.716 6.8768 135.716 7.16608V16.6178C135.716 16.9071 135.83 17.1845 136.033 17.3891C136.236 17.5936 136.511 17.7086 136.799 17.7086ZM139.386 8.69608H140.672V15.0878H139.386V8.69608Z" fill="white"/>
<path d="M142.404 19.4694H125.282C124.996 19.4703 124.721 19.5857 124.519 19.7901C124.317 19.9946 124.203 20.2715 124.203 20.5601V28.2287C124.203 28.5173 124.317 28.7942 124.519 28.9987C124.721 29.2031 124.996 29.3185 125.282 29.3194H142.401C142.688 29.3194 142.963 29.2045 143.166 29C143.369 28.7954 143.483 28.518 143.483 28.2287V20.5601C143.483 20.2715 143.37 19.9946 143.167 19.7901C142.965 19.5857 142.691 19.4703 142.404 19.4694ZM139.448 26.6652H128.239V25.3697H139.455L139.448 26.6652ZM139.448 23.4191H128.239V22.1236H139.455L139.448 23.4191Z" fill="white"/>
<path d="M168.651 20.8467V15.9812C168.65 15.6926 168.536 15.4161 168.333 15.2124C168.13 15.0086 167.855 14.8942 167.568 14.8942H149.367V16.3833H164.627V17.6601H149.367V19.1492H164.627V20.4037H149.367V21.9226H167.568C167.853 21.9226 168.126 21.8097 168.329 21.6084C168.531 21.407 168.647 21.1334 168.651 20.8467Z" fill="white"/>
<path d="M162.494 13.7998H166.526V13.1893H168.651V11.395H166.526V10.5499H168.651V8.7519H166.526V7.86964H168.651V6.07534H166.526V5.7738C166.526 5.57634 166.448 5.38697 166.309 5.24734C166.171 5.10771 165.983 5.02927 165.787 5.02927H163.252C163.056 5.02927 162.868 5.10771 162.729 5.24734C162.59 5.38697 162.512 5.57634 162.512 5.7738V6.07534H159.475V7.86964H162.512V8.7519H159.475V10.5499H162.512V11.395H159.475V13.1893H162.512L162.494 13.7998Z" fill="white"/>
<path d="M151.492 13.7998H155.524V13.1893H158.562V11.395H155.524V10.5499H158.562V8.7519H155.524V7.86964H158.562V6.07534H155.524V5.7738C155.524 5.57634 155.446 5.38697 155.307 5.24734C155.169 5.10771 154.981 5.02927 154.785 5.02927H152.261C152.065 5.02927 151.877 5.10771 151.738 5.24734C151.599 5.38697 151.521 5.57634 151.521 5.7738V6.07534H149.396V7.86964H151.521V8.7519H149.396V10.5499H151.521V11.395H149.396V13.1893H151.521L151.492 13.7998Z" fill="white"/>
<path d="M164.29 23.4191C164.575 24.1375 164.807 24.8113 165 25.4181C165.406 26.6937 165.718 27.9977 165.935 29.3194H169.767C169.475 27.3071 168.979 25.3301 168.289 23.4191H164.29Z" fill="white"/>
<path d="M159.375 23.4191C159.711 24.2455 159.985 25.0161 160.199 25.701H164.135C163.932 24.99 163.688 24.212 163.396 23.4191H159.375Z" fill="white"/>
<path d="M158.658 23.4191H154.622V28.3962C154.623 28.6414 154.72 28.8762 154.893 29.0493C155.065 29.2223 155.299 29.3194 155.542 29.3194H164.323V26.6652H158.658V23.4191Z" fill="white"/>
<path d="M149.918 23.4191C149.708 24.5189 149.434 25.6053 149.097 26.6726C148.85 27.4581 148.532 28.3515 148.129 29.3194H152.364C153.088 27.4102 153.624 25.4339 153.964 23.4191H149.918Z" fill="white"/>
<path d="M76.707 43.1527V44.2248H72.5088V43.1304L74.8518 39.4077H72.5531V38.049H76.6664V39.1434L74.3197 42.866H76.4225C76.4599 42.866 76.4968 42.8735 76.5314 42.8879C76.5659 42.9023 76.5973 42.9234 76.6237 42.95C76.6501 42.9766 76.6711 43.0082 76.6854 43.043C76.6997 43.0778 76.707 43.1151 76.707 43.1527Z" fill="white"/>
<path d="M83.4035 38.0527V44.2248H82.0028V41.7753H80.0774V44.2248H78.6768V38.0527H80.0774V40.4166H82.0028V38.3431C82.0024 38.3051 82.0093 38.2674 82.0234 38.2322C82.0375 38.197 82.0584 38.165 82.0849 38.138C82.1113 38.1109 82.1429 38.0895 82.1776 38.0749C82.2124 38.0602 82.2497 38.0527 82.2874 38.0527H83.4035Z" fill="white"/>
<path d="M89.5276 42.866V44.2248H85.6768V38.3431C85.6768 38.2667 85.7066 38.1934 85.7599 38.139C85.8131 38.0847 85.8855 38.0537 85.9613 38.0527H89.4833V39.4114H87.0774V40.4352H89.2652V41.7753H87.0774V42.866H89.5276Z" fill="white"/>
<path d="M96.3535 38.0527V44.2248H95.3003L92.9387 40.8744V44.2248H91.5381V38.0527H92.5876L94.9529 41.4031V38.3431C94.9524 38.3051 94.9594 38.2674 94.9735 38.2322C94.9875 38.197 95.0084 38.165 95.0349 38.138C95.0614 38.1109 95.0929 38.0895 95.1277 38.0749C95.1624 38.0602 95.1998 38.0527 95.2374 38.0527H96.3535Z" fill="white"/>
<path d="M104.691 41.3212C104.691 43.2048 103.386 44.3514 101.672 44.3514C100.827 44.3642 100.011 44.0384 99.4049 43.4457C98.7985 42.853 98.4506 42.0419 98.4379 41.1909C98.4251 40.3398 98.7485 39.5185 99.337 38.9077C99.9254 38.2968 100.731 37.9464 101.575 37.9336C102.104 37.9231 102.626 38.0468 103.094 38.2934C103.563 38.54 103.962 38.9015 104.255 39.3444L103.279 39.9103C103.224 39.9425 103.16 39.9552 103.097 39.9464C103.034 39.9376 102.976 39.9079 102.932 39.8619C102.754 39.681 102.541 39.5388 102.307 39.444C102.072 39.3492 101.821 39.304 101.568 39.3109C101.326 39.3045 101.085 39.3485 100.86 39.4404C100.635 39.5322 100.432 39.6699 100.263 39.8446C100.093 40.0194 99.9616 40.2276 99.8759 40.456C99.7902 40.6845 99.7523 40.9283 99.7646 41.1723C99.7646 42.222 100.504 42.9889 101.69 42.9889C102.503 42.9889 103.035 42.6166 103.257 42.0359H101.631V40.8037H104.702L104.691 41.3212Z" fill="white"/>
<path d="M109.195 41.8535V43.927C109.196 43.9648 109.189 44.0023 109.174 44.0373C109.16 44.0723 109.139 44.1041 109.113 44.1308C109.086 44.1575 109.055 44.1786 109.02 44.1928C108.985 44.2071 108.948 44.2141 108.911 44.2136H107.802V41.8423L105.747 38.0415H107.174C107.227 38.042 107.278 38.0572 107.323 38.0854C107.368 38.1137 107.405 38.1539 107.429 38.2016L108.515 40.4352L109.679 38.0527H111.239L109.195 41.8535Z" fill="white"/>
<path d="M112.869 42.2332V38.0527H114.27V42.1104C114.27 42.5757 114.492 42.974 115.234 42.974C115.977 42.974 116.195 42.5757 116.195 42.1104V38.3431C116.195 38.266 116.226 38.1922 116.28 38.1377C116.334 38.0833 116.407 38.0527 116.483 38.0527H117.592V42.2332C117.592 43.5547 116.58 44.3477 115.231 44.3477C113.882 44.3477 112.869 43.5547 112.869 42.2332Z" fill="white"/>
<path d="M123.239 43.2569H120.963L120.722 44.0238C120.704 44.0821 120.667 44.1329 120.618 44.169C120.569 44.2051 120.51 44.2246 120.449 44.2248H119.126L121.218 38.0527H123.003L125.083 44.2248H123.546L123.239 43.2569ZM122.818 41.9317L122.101 39.6683L121.384 41.9317H122.818Z" fill="white"/>
<path d="M131.639 38.0527V44.2248H130.589L128.228 40.8744V44.2248H126.827V38.0527H127.869L130.231 41.4031V38.3431C130.231 38.2667 130.261 38.1934 130.314 38.139C130.367 38.0847 130.44 38.0537 130.515 38.0527H131.639Z" fill="white"/>
<path d="M141.307 43.1527V44.2248H137.108V43.1304L139.451 39.4077H137.153V38.049H141.262V39.1434L138.919 42.866H141.022C141.098 42.866 141.17 42.8962 141.223 42.95C141.277 43.0038 141.307 43.0767 141.307 43.1527Z" fill="white"/>
<path d="M147.999 38.0527V44.2248H146.602V41.7753H144.677V44.2248H143.276V38.0527H144.677V40.4166H146.602V38.3431C146.602 38.3051 146.609 38.2674 146.623 38.2322C146.637 38.197 146.658 38.165 146.684 38.138C146.711 38.1109 146.742 38.0895 146.777 38.0749C146.812 38.0602 146.849 38.0527 146.887 38.0527H147.999Z" fill="white"/>
<path d="M151.677 38.0527V44.2248H150.276V38.3431C150.276 38.3051 150.283 38.2674 150.297 38.2322C150.311 38.197 150.332 38.165 150.358 38.138C150.385 38.1109 150.416 38.0895 150.451 38.0749C150.486 38.0602 150.523 38.0527 150.561 38.0527H151.677Z" fill="white"/>
<path d="M158.677 38.0527V44.2248H157.276V41.7753H155.351V44.2248H153.95V38.0527H155.351V40.4166H157.276V38.3431C157.276 38.2667 157.306 38.1934 157.359 38.139C157.413 38.0847 157.485 38.0537 157.561 38.0527H158.677Z" fill="white"/>
<path d="M160.905 42.2332V38.0527H162.306V42.1104C162.306 42.5757 162.524 42.974 163.27 42.974C164.017 42.974 164.231 42.5757 164.231 42.1104V38.3431C164.231 38.2667 164.261 38.1934 164.314 38.139C164.368 38.0847 164.44 38.0537 164.516 38.0527H165.625V42.2332C165.625 43.5547 164.612 44.3477 163.263 44.3477C161.914 44.3477 160.905 43.5547 160.905 42.2332Z" fill="white"/>
<path d="M169.261 38.0527V44.2248H167.86V38.3431C167.86 38.3051 167.867 38.2674 167.881 38.2322C167.895 38.197 167.916 38.165 167.942 38.138C167.969 38.1109 168 38.0895 168.035 38.0749C168.07 38.0602 168.107 38.0527 168.145 38.0527H169.261Z" fill="white"/>
</g>
<defs>
<clipPath id="clip0_311_1650">
<rect width="170" height="51" fill="white"/>
</clipPath>
</defs>
</svg>
