<svg width="1930" height="399" viewBox="0 0 1930 399" fill="none" xmlns="http://www.w3.org/2000/svg">
<path d="M1418.2 273.503C1418.2 274.003 1417.6 274.503 1416.8 274.503C1416 274.503 1415.4 274.103 1415.4 273.503V125.203C1415.4 124.703 1416 124.203 1416.8 124.203C1417.6 124.203 1418.2 124.603 1418.2 125.203V273.503Z" fill="#595757"/>
<path d="M446.2 314.2H465.1L460.2 325.1H444L440.1 344.7H443.4V334H457.9V344.7H465.2V354.9H457.9V367.5H465.3V378.3H457.9V392.6L443.4 398.5V378.3H426.7V367.5H443.4V354.9H426.2V345.4L430.6 325.1H426.3V314.2H432.3L433.3 309H447.2L446.1 314.2H446.2ZM464.1 338.8L472.7 309.3H487.9L486.2 314.8H514.6V337H500.3V325.2H483.8L479.4 338.7H464L464.1 338.8ZM495.5 344.9H501.6L514.7 395.8H499.5L490.8 360.9L480.7 395.8H465.1L483.8 332.9H498.9L495.5 344.9Z" fill="#595757"/>
<path d="M571.4 378.705L584.8 385.605H640.3L635.8 395.105H577.3L570.7 390.205L555.9 398.505V329.505H571.3V378.805L571.4 378.705ZM564 307.905C565.4 307.905 566.8 308.305 568.3 309.005C569.7 309.705 570.8 310.805 571.6 312.205C572.4 313.605 572.8 315.105 572.8 316.605C572.8 318.105 572.4 319.605 571.6 320.905C570.8 322.305 569.7 323.305 568.4 324.105C567 324.905 565.6 325.205 564 325.205C562.4 325.205 560.9 324.905 559.5 324.105C558.1 323.305 557 322.305 556.2 320.905C555.4 319.605 555 318.105 555.1 316.505C555.1 315.005 555.5 313.605 556.3 312.205C557.1 310.805 558.2 309.705 559.6 308.905C561 308.205 562.5 307.805 564 307.805V307.905ZM639.3 317.005L631.3 327.005H639.3V369.605C639.3 369.605 639.9 374.305 635.7 377.605C631.6 381.005 627.8 380.605 627.8 380.605H619V370.805H625.2V336.505H615.6V342.005H624.2V351.505H615.6V356.805H624V366.305H615.6V377.005L601.4 381.605V366.305H591.8V376.005L577.7 380.605V326.905H586.6L583.1 321.105H599.1L603 326.905H615L621.2 318.905H577.8V309.305H639.3V316.905V317.005ZM591.9 342.105H601.5V336.605H591.9V342.105ZM591.9 356.905H601.5V351.605H591.9V356.905Z" fill="#595757"/>
<path d="M690.2 342.901H681.8V331.701H724.5L719.5 342.901H704.3L695.6 384.001H707.3L704.1 355.501H717.8L722.4 395.802H708.5L707.5 386.001L703.5 395.201H680.9V386.001L690.1 342.901H690.2ZM682.2 321.102V310.102H722.9L718.3 321.102H682.2ZM731.7 324.901H723.8V314.201H732.9L733.5 308.602H748.2L747.6 314.201H768.5V384.001C768.5 384.001 769.3 388.102 765.6 391.802C761.9 395.502 757.3 395.102 757.3 395.102H747.6V384.001H754V324.901H746.3L738.2 395.501H723.5L731.6 324.901H731.7Z" fill="#595757"/>
<path d="M804.7 395.405L819.3 328.005H805V316.405H820.6L821.4 309.305H838.2L837.4 316.405H888.2V383.705C888.2 383.705 888.5 388.305 884.2 392.105C879.9 396.005 874.8 395.305 874.8 395.305H846.2V383.605H872.2V327.905H835.8L821.5 395.305H804.6L804.7 395.405Z" fill="#595757"/>
<path d="M1315.1 348.703H922.5V357.603H1315.1V348.703Z" fill="#595757"/>
<path d="M393.6 348.703H1V357.603H393.6V348.703Z" fill="#595757"/>
<path d="M99.5001 1.00146C98.9001 0.401465 98.1001 0.101562 97.2001 0.101562H95.1001C89.4001 0.101562 79.4001 0.701465 66.4001 3.00146C42.5001 7.20146 25.1001 20.0016 14.4001 36.1016C4.60005 50.8016 0.300049 73.3015 0.300049 92.8015V129.102C0.300049 124.902 2.50005 111.201 10.8 101.201C30.6 77.2014 57.6001 71.1016 75.0001 71.1016H97.2001C98.1001 71.1016 98.9001 70.8014 99.5001 70.2014C100.1 69.6014 100.5 68.8014 100.5 67.9014V3.40137C100.5 2.50137 100.2 1.70156 99.5001 1.10156V1.00146Z" fill="#D7000F"/>
<path d="M261.4 120.8L261.2 121.3V197.7C261.6 240.9 292.7 273.5 333.6 273.5C374.5 273.5 406 240.6 406 197C406 153.4 375.4 120.5 334.1 120.5H261.9L261.4 120.7V120.8ZM297.7 197.1C297.7 174.9 313.8 156.9 333.6 156.9C353.4 156.9 369.5 174.9 369.5 197.1C369.5 219.3 353.4 237.3 333.6 237.3C313.8 237.3 297.7 219.3 297.7 197.1Z" fill="#595757"/>
<path d="M905.6 120.8L905.4 121.3V197.7C905.8 240.9 936.9 273.5 977.8 273.5C1018.7 273.5 1050.2 240.6 1050.2 197C1050.2 153.4 1019.6 120.5 978.3 120.5H906.1L905.6 120.7V120.8ZM941.8 197.1C941.8 174.9 957.9 156.9 977.7 156.9C997.5 156.9 1013.6 174.9 1013.6 197.1C1013.6 219.3 997.5 237.3 977.7 237.3C957.9 237.3 941.8 219.3 941.8 197.1Z" fill="#595757"/>
<path d="M1208.2 120.6C1207.7 120.6 1207.4 121 1207.4 121.4V270C1207.4 270.4 1207.8 270.8 1208.2 270.8H1314.4C1314.8 270.8 1315.2 270.4 1315.2 270V238.3C1315.2 237.9 1314.8 237.5 1314.4 237.5H1248.1C1246.7 237.5 1245.6 236.4 1245.6 235V214.8C1245.6 213.4 1246.7 212.3 1248.1 212.3H1311.3C1311.7 212.3 1312.1 211.9 1312.1 211.5V179.8C1312.1 179.4 1311.7 179 1311.3 179H1248.1C1246.7 179 1245.6 177.9 1245.6 176.5V156.3C1245.6 154.9 1246.7 153.8 1248.1 153.8H1314.4C1314.8 153.8 1315.2 153.4 1315.2 153V121.3C1315.2 120.9 1314.8 120.5 1314.4 120.5H1208.2V120.6Z" fill="#595757"/>
<path d="M1141.6 120.602L1141 120.802L1140.8 121.401V190.201C1140.8 191.401 1140 192.402 1138.8 192.602C1137.6 192.802 1136.5 192.301 1136 191.201L1103.6 121.201C1103.5 120.901 1103.1 120.602 1102.9 120.602H1066.9L1066.3 120.802L1066.1 121.401V270.001C1066.1 270.401 1066.5 270.802 1066.9 270.802H1102.9L1103.5 270.602L1103.7 270.001V201.401C1103.7 200.201 1104.5 199.201 1105.7 199.001C1106.9 198.701 1108 199.301 1108.5 200.401L1140.9 270.401C1141 270.701 1141.3 270.901 1141.6 270.901H1177.8L1178.4 270.701L1178.6 270.102V121.501C1178.6 121.101 1178.2 120.701 1177.8 120.701H1141.6V120.602Z" fill="#595757"/>
<path d="M163.8 67.9032C139.5 71.4032 120.8 83.7034 112.4 101.603C109 108.903 107.3 116.303 107.3 123.603C107.3 136.903 113.3 150.103 124.4 160.103C131.6 166.603 141.1 172.003 151.7 176.203L166.8 181.403C175.5 184.203 185.3 188.203 191.5 191.403C199.1 195.403 205.6 201.803 205.6 211.203C205.6 220.603 205 217.603 203.7 220.403C199.7 229.303 188.6 235.803 173.8 235.603C149.9 235.203 133.6 221.303 122.5 209.503L115.3 201.303C112.4 197.603 111.5 196.003 110.1 196.003C108.8 196.003 108.8 197.203 108.8 199.603V237.103C108.8 241.003 108.8 245.303 111 247.603C126.5 263.603 150.3 273.603 172.9 273.503C196.6 273.503 214.6 266.203 228 253.203C244.4 237.203 249.9 210.503 241.8 189.203C236.1 174.303 219.4 160.803 189.6 150.803C168.3 143.703 157.2 138.003 152.3 132.303C147.9 127.203 147.1 121.103 149.3 115.803C152 109.303 159.3 105.103 168.8 103.903C176.9 102.903 187.9 103.303 203.4 110.203C209.8 113.103 222.8 120.303 230.1 128.403C231.7 130.203 233.1 130.003 233.3 129.103C233.4 128.403 233.4 127.003 233.4 125.703V93.1034C233.4 89.9034 233.5 88.7032 231.4 86.7032C227.3 83.0032 215.1 75.9033 203.3 72.0033C189.9 67.5033 175.4 66.3033 163.9 68.0033L163.8 67.9032Z" fill="#595757"/>
<path d="M423.7 120.602C423.3 120.602 422.9 121.001 422.9 121.401V270.001C422.9 270.401 423.3 270.802 423.7 270.802H461.1C461.6 270.802 461.9 270.401 461.9 270.001V228.901C461.9 228.201 462.2 227.602 462.6 227.102C463.1 226.602 463.7 226.401 464.4 226.401H521.2C521.6 226.401 522 226.002 522 225.602V193.901C522 193.501 521.6 193.102 521.2 193.102H464.4C463 193.102 461.9 192.002 461.9 190.602V156.401C461.9 155.001 463 153.901 464.4 153.901H525.6C526.1 153.901 526.4 153.502 526.4 153.102V121.401C526.4 121.001 526 120.602 525.6 120.602H423.6H423.7Z" fill="#595757"/>
<path d="M540.8 120.602C540.4 120.602 540 121.001 540 121.401V153.102C540 153.502 540.4 153.901 540.8 153.901H568C569.4 153.901 570.5 155.001 570.5 156.401V270.001C570.5 270.401 570.9 270.802 571.3 270.802H608.7C609.1 270.802 609.5 270.401 609.5 270.001V156.401C609.5 155.001 610.6 153.901 612 153.901H639.1C639.5 153.901 639.9 153.502 639.9 153.102V121.401C639.9 121.001 639.5 120.602 639.1 120.602H540.7H540.8Z" fill="#595757"/>
<path d="M792.5 120.602C792 120.602 791.7 121.001 791.7 121.401V153.102C791.7 153.502 792.1 153.901 792.5 153.901H819.7C821.1 153.901 822.2 155.001 822.2 156.401V270.001C822.2 270.401 822.6 270.802 823 270.802H860.4C860.8 270.802 861.2 270.401 861.2 270.001V156.401C861.2 155.001 862.3 153.901 863.7 153.901H890.8C891.2 153.901 891.6 153.502 891.6 153.102V121.401C891.6 121.001 891.2 120.602 890.8 120.602H792.4H792.5Z" fill="#595757"/>
<path d="M708.7 67.9032C684.4 71.4032 665.7 83.7034 657.4 101.603C654 108.903 652.3 116.303 652.3 123.603C652.3 136.903 658.3 150.103 669.4 160.103C676.6 166.603 686.1 172.003 696.7 176.203L711.8 181.403C720.5 184.203 730.4 188.203 736.5 191.403C744.1 195.403 750.6 201.803 750.6 211.203C750.6 220.603 750 217.603 748.7 220.403C744.7 229.303 733.6 235.803 718.8 235.603C694.9 235.203 678.7 221.303 667.5 209.503L660.3 201.303C657.4 197.603 656.5 196.003 655.1 196.003C653.8 196.003 653.8 197.203 653.8 199.603V237.103C653.8 241.003 653.8 245.303 656 247.603C671.5 263.603 695.3 273.603 717.9 273.503C741.5 273.503 759.6 266.203 773 253.203C789.4 237.203 794.9 210.503 786.8 189.203C781.1 174.303 764.4 160.803 734.6 150.803C713.3 143.703 702.2 138.003 697.3 132.303C692.9 127.203 692.1 121.103 694.3 115.803C697.1 109.303 704.3 105.103 713.8 103.903C721.9 102.903 732.9 103.303 748.4 110.203C754.8 113.103 767.8 120.303 775.1 128.403C776.7 130.203 778.1 130.003 778.3 129.103C778.5 128.403 778.4 127.003 778.4 125.703V93.1034C778.5 89.9034 778.5 88.7032 776.4 86.7032C772.3 83.0032 760.1 75.9033 748.3 72.0033C734.9 67.5033 720.4 66.3033 708.9 68.0033L708.7 67.9032Z" fill="#595757"/>
<path d="M44.2 270.799C60.7 270.799 78.9 257.698 79 241.398V103.898H75C45.3 103.898 23.6 113.098 9.8 130.198C-1.8 144.498 0.300001 155.398 0.300001 172.198V270.698H44.2V270.799Z" fill="#595757"/>
<path d="M1632.1 235.697H1792.1V290.197H1518.7V234.297C1553 226.297 1578.1 209.897 1593.5 196.997C1614.6 179.397 1623.8 163.197 1624.8 158.397C1626 155.197 1626.6 151.797 1626.6 147.997C1626.6 133.297 1614.6 121.297 1599.9 121.297C1585.2 121.297 1573.2 133.297 1573.2 147.997H1518.7C1518.7 103.197 1555.1 66.7969 1599.9 66.7969C1644.7 66.7969 1681.1 103.197 1681.1 147.997C1681.1 155.897 1680 163.697 1677.7 171.197C1673.2 189.697 1657.2 213.797 1632.2 235.597L1632.1 235.697Z" fill="url(#paint0_linear_7114_1014)"/>
<path d="M1790.5 66.7969H1739.2V125.597H1680.4V176.897C1680.4 239.497 1731.2 291.097 1793.8 290.197C1854 289.297 1902.8 240.497 1903.7 180.297C1904.7 117.697 1853.1 66.8967 1790.4 66.8967L1790.5 66.7969ZM1790.6 231.397C1762.3 230.597 1739.2 205.897 1739.2 177.597C1739.2 149.297 1745 150.297 1754.4 140.897C1763.8 131.497 1776.8 125.697 1791.1 125.697C1819.4 125.697 1844.2 148.797 1844.9 177.097C1845.7 207.397 1820.9 232.197 1790.6 231.397Z" fill="url(#paint1_linear_7114_1014)"/>
<path d="M1739.2 66.7969H1680.4V125.597H1739.2V66.7969Z" fill="url(#paint2_linear_7114_1014)"/>
<path d="M1790.5 66.7969H1739.2V125.597H1680.4V176.897C1680.4 239.497 1731.2 291.097 1793.8 290.197C1854 289.297 1902.8 240.497 1903.7 180.297C1904.7 117.697 1853.1 66.8967 1790.4 66.8967L1790.5 66.7969ZM1790.6 231.397C1762.3 230.597 1739.2 205.897 1739.2 177.597C1739.2 149.297 1745 150.297 1754.4 140.897C1763.8 131.497 1776.8 125.697 1791.1 125.697C1819.4 125.697 1844.2 148.797 1844.9 177.097C1845.7 207.397 1820.9 232.197 1790.6 231.397Z" fill="url(#paint3_linear_7114_1014)"/>
<path d="M1739.2 66.7969H1680.4V125.597H1739.2V66.7969Z" fill="url(#paint4_linear_7114_1014)"/>
<path d="M1891.3 264.898H1882.7V261.898H1903.5V264.898H1894.9V290.299H1891.3V264.898Z" fill="url(#paint5_linear_7114_1014)"/>
<path d="M1908.6 261.797H1912.2V273.697H1925.5V261.797H1929.1V290.197H1925.5V276.797H1912.2V290.197H1908.6V261.797Z" fill="url(#paint6_linear_7114_1014)"/>
<path d="M1563.5 356.992C1563.5 359.692 1562.9 361.092 1561 361.892C1559.1 362.592 1556.1 362.692 1551.7 362.692C1551.5 361.392 1550.7 359.192 1550 357.892C1553.2 357.992 1556.6 357.992 1557.5 357.892C1558.5 357.892 1558.8 357.592 1558.8 356.792V329.892H1527.9V362.492H1523.3V325.392H1536.8C1537.9 322.792 1539.1 319.492 1539.7 316.992L1545.3 318.192C1544.2 320.592 1543.1 323.192 1541.9 325.392H1563.3V356.892L1563.5 356.992ZM1538 352.392V355.992H1533.8V335.892H1553.1V352.392H1538ZM1538 339.992V348.292H1548.8V339.992H1538Z" fill="#323333"/>
<path d="M1577.3 348.192C1576.1 351.592 1574.2 355.092 1572.2 357.392C1571.5 356.792 1570 355.692 1569.1 355.192C1571 353.192 1572.6 350.192 1573.5 347.292L1577.2 348.292L1577.3 348.192ZM1583.5 345.592V357.392C1583.5 359.392 1583.2 360.492 1581.9 361.092C1580.6 361.692 1578.8 361.792 1576.3 361.792C1576.2 360.692 1575.6 358.992 1575.1 357.892C1576.7 357.892 1578.2 357.892 1578.7 357.892C1579.2 357.892 1579.3 357.792 1579.3 357.292V345.592H1569.8V341.692H1579.3V337.192H1569.5V333.292H1575C1574.8 331.592 1574.1 328.992 1573.2 327.092L1576.9 326.192C1577.8 328.092 1578.6 330.892 1578.9 332.592L1576.1 333.292H1582.9C1583.8 331.192 1584.8 328.192 1585.3 326.092L1589.6 326.992C1588.8 329.192 1587.9 331.492 1587.1 333.292H1592.9V337.192H1583.4V341.692H1592.2V345.592H1583.4H1583.5ZM1592.2 325.992H1570.4V322.192H1579.5C1579 320.792 1578.3 319.192 1577.7 317.992L1581.8 316.992C1582.6 318.592 1583.6 320.692 1584.2 322.292H1592.2V326.092V325.992ZM1588.1 346.892C1589.7 349.192 1591.4 352.292 1592.2 354.292L1589 356.192C1588.2 354.092 1586.5 350.792 1585 348.492L1588.1 346.892ZM1614.7 337.892H1609.7V362.492H1605.2V337.892H1598.8V338.892C1598.8 345.992 1598.2 355.892 1593.7 362.092C1593 361.292 1591.1 359.892 1590.2 359.392C1594.1 353.592 1594.5 345.292 1594.5 338.892V321.892C1600 320.992 1606.2 319.392 1609.7 317.892L1613.4 321.292C1609.3 322.892 1603.9 324.092 1598.9 324.992V333.692H1614.8V337.992L1614.7 337.892Z" fill="#323333"/>
<path d="M1642.7 323.991C1642.1 326.191 1641.4 328.391 1640.7 330.291H1660.6V357.391C1660.6 359.691 1660.2 360.991 1658.6 361.691C1657 362.391 1654.5 362.491 1651.1 362.491C1650.9 361.291 1650.2 359.391 1649.6 358.291C1652 358.291 1654.4 358.291 1655 358.291C1655.7 358.291 1656 358.091 1656 357.391V334.691H1648.7V361.191H1644.1V334.691H1637.1V361.191H1632.5V334.691H1625.8V362.791H1621.1V330.391H1635.8C1636.3 328.491 1636.9 326.091 1637.3 324.091H1618.7V319.391H1663V324.091H1642.8L1642.7 323.991Z" fill="#323333"/>
<path d="M1684 329.394C1682.5 331.994 1680.6 334.594 1678.6 336.994V362.894H1674V342.094C1672.4 343.794 1670.7 345.294 1669 346.594C1668.4 345.594 1666.7 343.594 1665.7 342.694C1670.8 339.094 1676.2 333.294 1679.5 327.694L1683.9 329.294L1684 329.394ZM1682.1 318.894C1678.7 323.394 1673.5 328.294 1668.9 331.494C1668.3 330.494 1667 328.694 1666.2 327.794C1670.4 325.094 1675.1 320.694 1677.6 317.094L1682.1 318.894ZM1711.6 337.994H1704.6V357.194C1704.6 359.794 1704 360.994 1702.1 361.694C1700.2 362.294 1697.2 362.394 1692.9 362.394C1692.7 361.194 1692 359.294 1691.3 357.994C1694.4 357.994 1697.8 357.994 1698.6 357.994C1699.5 357.994 1699.8 357.794 1699.8 356.994V337.894H1684.2V333.494H1711.6V337.894V337.994ZM1710.5 324.394H1686.4V319.994H1710.5V324.394Z" fill="#323333"/>
<path d="M1760.7 339.194V346.094H1773.3V350.094H1760.7V357.294H1779.4V361.394H1737.4V357.294H1755.8V350.094H1743.8V346.094H1755.8V339.194H1743.3V335.994C1741.6 336.994 1739.7 338.094 1737.9 338.894C1737.2 337.794 1735.9 336.094 1734.7 335.094C1743.6 331.194 1752.6 324.294 1757.5 316.594L1761.6 318.494C1761.3 318.894 1761 319.294 1760.7 319.794C1766.7 326.494 1773.8 331.294 1781.7 335.194C1780.6 336.094 1779.2 337.794 1778.6 339.094C1776.8 338.094 1775 336.994 1773.3 335.994V339.094H1760.5L1760.7 339.194ZM1772.1 335.094C1767.1 331.794 1762.6 327.994 1758.3 323.194C1754.5 327.694 1749.8 331.694 1744.8 335.094H1772.2H1772.1Z" fill="#323333"/>
<path d="M1792.3 348.192C1791.1 351.592 1789.2 355.092 1787.2 357.392C1786.5 356.792 1785 355.692 1784.1 355.192C1786 353.192 1787.6 350.192 1788.5 347.292L1792.2 348.292L1792.3 348.192ZM1798.4 345.592V357.392C1798.4 359.392 1798.1 360.492 1796.8 361.092C1795.5 361.692 1793.7 361.792 1791.2 361.792C1791.1 360.692 1790.5 358.992 1790 357.892C1791.6 357.892 1793.1 357.892 1793.6 357.892C1794.1 357.892 1794.2 357.792 1794.2 357.292V345.592H1784.7V341.692H1794.2V337.192H1784.4V333.292H1789.9C1789.7 331.592 1789 328.992 1788.1 327.092L1791.8 326.192C1792.7 328.092 1793.5 330.892 1793.8 332.592L1791 333.292H1797.8C1798.7 331.192 1799.7 328.192 1800.2 326.092L1804.5 326.992C1803.7 329.192 1802.8 331.492 1802 333.292H1807.8V337.192H1798.3V341.692H1807.1V345.592H1798.3H1798.4ZM1807.1 325.992H1785.3V322.192H1794.4C1793.9 320.792 1793.2 319.192 1792.6 317.992L1796.7 316.992C1797.5 318.592 1798.5 320.692 1799.1 322.292H1807.1V326.092V325.992ZM1803 346.892C1804.6 349.192 1806.3 352.292 1807.1 354.292L1803.9 356.192C1803.1 354.092 1801.4 350.792 1799.9 348.492L1803 346.892ZM1829.6 337.892H1824.6V362.492H1820.1V337.892H1813.7V338.892C1813.7 345.992 1813.1 355.892 1808.6 362.092C1807.9 361.292 1806 359.892 1805.1 359.392C1809 353.592 1809.4 345.292 1809.4 338.892V321.892C1814.9 320.992 1821.1 319.392 1824.6 317.892L1828.3 321.292C1824.2 322.892 1818.8 324.092 1813.8 324.992V333.692H1829.7V337.992L1829.6 337.892Z" fill="#323333"/>
<path d="M1875.3 341.694V362.594H1870.2V359.894H1835.8V341.694H1841V355.294H1853V338.794H1838.2V321.394H1843.1V334.294H1853V317.094H1858.1V334.294H1868.3V321.394H1873.4V338.794H1858.1V355.294H1870.3V341.694H1875.4H1875.3Z" fill="#323333"/>
<path d="M1921.9 338.397C1919.9 344.697 1916.6 349.497 1912.5 353.197C1916.6 355.697 1921.6 357.597 1927.3 358.597C1926.3 359.597 1925 361.497 1924.4 362.797C1918.2 361.497 1913.1 359.297 1908.8 356.197C1904.4 359.197 1899.3 361.297 1893.9 362.697C1893.4 361.497 1892.3 359.697 1891.4 358.697C1896.3 357.597 1901 355.697 1905 353.097C1902.5 350.697 1900.3 347.897 1898.5 344.797C1895.1 350.497 1890.5 355.097 1884.3 358.797C1883.7 357.797 1882 355.997 1880.9 355.097C1889.8 349.997 1895.2 342.297 1898.4 332.397H1891.7C1888.8 332.397 1887 332.697 1886.5 333.297C1886.2 332.297 1885.5 330.197 1885 328.997C1885.7 328.897 1886.3 328.097 1886.9 326.997C1887.4 325.997 1889.4 322.097 1890.2 318.297L1895.1 319.097C1894.3 322.097 1892.9 325.297 1891.6 327.897H1899.6C1900.4 324.397 1901.1 320.697 1901.6 316.797L1906.7 317.597C1906.3 321.197 1905.7 324.597 1904.9 327.897H1925.6V332.297H1903.8C1903.3 333.897 1902.8 335.497 1902.2 336.997H1917.9L1918.8 336.797L1921.9 338.197V338.397ZM1901.4 341.597C1903.2 344.997 1905.6 347.997 1908.6 350.397C1911.4 347.997 1913.8 344.997 1915.5 341.597H1901.4ZM1918.7 326.997C1917.4 325.197 1914.7 321.997 1912.6 319.797L1916.2 317.697C1918.2 319.797 1921 322.797 1922.4 324.597L1918.7 326.997Z" fill="#323333"/>
<path d="M1641 390.8C1645.9 386.5 1648.2 383.4 1648.2 380.7C1648.2 378 1647.3 377.6 1645.3 377.6C1643.3 377.6 1642.9 378.4 1642 379.4L1640.9 378.3C1642.2 376.9 1643.5 376 1645.5 376C1647.5 376 1650.1 377.8 1650.1 380.7C1650.1 383.6 1647.6 387 1643.9 390.5C1644.7 390.5 1645.7 390.4 1646.5 390.4H1650.9V392.1H1641V390.9V390.8Z" fill="#323333"/>
<path d="M1653 383.999C1653 378.499 1654.9 375.898 1657.9 375.898C1660.9 375.898 1662.8 378.599 1662.8 383.999C1662.8 389.399 1660.9 392.198 1657.9 392.198C1654.9 392.198 1653 389.499 1653 383.999ZM1660.8 383.999C1660.8 379.399 1659.6 377.499 1657.8 377.499C1656 377.499 1654.8 379.399 1654.8 383.999C1654.8 388.599 1656 390.599 1657.8 390.599C1659.6 390.599 1660.8 388.599 1660.8 383.999Z" fill="#323333"/>
<path d="M1664.8 383.999C1664.8 378.499 1666.7 375.898 1669.7 375.898C1672.7 375.898 1674.6 378.599 1674.6 383.999C1674.6 389.399 1672.7 392.198 1669.7 392.198C1666.7 392.198 1664.8 389.499 1664.8 383.999ZM1672.7 383.999C1672.7 379.399 1671.5 377.499 1669.7 377.499C1667.9 377.499 1666.7 379.399 1666.7 383.999C1666.7 388.599 1667.9 390.599 1669.7 390.599C1671.5 390.599 1672.7 388.599 1672.7 383.999Z" fill="#323333"/>
<path d="M1676.3 390.102L1677.3 388.802C1678.2 389.702 1679.3 390.501 1681.2 390.501C1683.1 390.501 1684.5 389.102 1684.5 386.802C1684.5 384.502 1683.2 383.201 1681.2 383.201C1679.2 383.201 1679.5 383.502 1678.6 384.102L1677.5 383.501L1678 376.102H1685.7V377.802H1679.8L1679.4 382.302C1680.1 381.902 1680.8 381.701 1681.7 381.701C1684.3 381.701 1686.4 383.201 1686.4 386.701C1686.4 390.201 1683.9 392.102 1681.3 392.102C1678.7 392.102 1677.4 391.101 1676.3 390.001V390.102Z" fill="#323333"/>
<path d="M1722.1 390.8C1727 386.5 1729.3 383.4 1729.3 380.7C1729.3 378 1728.4 377.6 1726.4 377.6C1724.4 377.6 1724 378.4 1723.1 379.4L1722 378.3C1723.3 376.9 1724.6 376 1726.6 376C1728.6 376 1731.2 377.8 1731.2 380.7C1731.2 383.6 1728.7 387 1725 390.5C1725.8 390.5 1726.8 390.4 1727.6 390.4H1732V392.1H1722.1V390.9V390.8Z" fill="#323333"/>
<path d="M1734.1 383.999C1734.1 378.499 1736 375.898 1739 375.898C1742 375.898 1743.9 378.599 1743.9 383.999C1743.9 389.399 1742 392.198 1739 392.198C1736 392.198 1734.1 389.499 1734.1 383.999ZM1742 383.999C1742 379.399 1740.8 377.499 1739 377.499C1737.2 377.499 1736 379.399 1736 383.999C1736 388.599 1737.2 390.599 1739 390.599C1740.8 390.599 1742 388.599 1742 383.999Z" fill="#323333"/>
<path d="M1745.9 390.8C1750.8 386.5 1753.1 383.4 1753.1 380.7C1753.1 378 1752.2 377.6 1750.2 377.6C1748.2 377.6 1747.8 378.4 1746.9 379.4L1745.8 378.3C1747.1 376.9 1748.4 376 1750.4 376C1752.4 376 1755 377.8 1755 380.7C1755 383.6 1752.5 387 1748.8 390.5C1749.6 390.5 1750.6 390.4 1751.4 390.4H1755.8V392.1H1745.9V390.9V390.8Z" fill="#323333"/>
<path d="M1757.5 390.102L1758.5 388.802C1759.4 389.702 1760.5 390.501 1762.4 390.501C1764.3 390.501 1765.7 389.102 1765.7 386.802C1765.7 384.502 1764.4 383.201 1762.4 383.201C1760.4 383.201 1760.7 383.502 1759.8 384.102L1758.7 383.501L1759.2 376.102H1766.9V377.802H1761L1760.6 382.302C1761.3 381.902 1762 381.701 1762.9 381.701C1765.5 381.701 1767.6 383.201 1767.6 386.701C1767.6 390.201 1765.1 392.102 1762.5 392.102C1759.9 392.102 1758.6 391.101 1757.5 390.001V390.102Z" fill="#323333"/>
<path d="M1717.7 383.195H1691.9V384.895H1717.7V383.195Z" fill="url(#paint7_linear_7114_1014)"/>
<defs>
<linearGradient id="paint0_linear_7114_1014" x1="1518.5" y1="178.497" x2="1792.1" y2="178.497" gradientUnits="userSpaceOnUse">
<stop stop-color="#E73531"/>
<stop offset="1" stop-color="#C11A1F"/>
</linearGradient>
<linearGradient id="paint1_linear_7114_1014" x1="1680.4" y1="178.497" x2="1903.8" y2="178.497" gradientUnits="userSpaceOnUse">
<stop stop-color="#E73531"/>
<stop offset="1" stop-color="#C11A1F"/>
</linearGradient>
<linearGradient id="paint2_linear_7114_1014" x1="1680.4" y1="96.1969" x2="1739.2" y2="96.1969" gradientUnits="userSpaceOnUse">
<stop stop-color="#E73531"/>
<stop offset="1" stop-color="#C11A1F"/>
</linearGradient>
<linearGradient id="paint3_linear_7114_1014" x1="1680.4" y1="178.497" x2="1903.8" y2="178.497" gradientUnits="userSpaceOnUse">
<stop stop-color="#E73531"/>
<stop offset="1" stop-color="#C11A1F"/>
</linearGradient>
<linearGradient id="paint4_linear_7114_1014" x1="1680.4" y1="178.497" x2="1903.8" y2="178.497" gradientUnits="userSpaceOnUse">
<stop stop-color="#E73531"/>
<stop offset="1" stop-color="#C11A1F"/>
</linearGradient>
<linearGradient id="paint5_linear_7114_1014" x1="1882.7" y1="275.999" x2="1903.5" y2="275.999" gradientUnits="userSpaceOnUse">
<stop stop-color="#E73531"/>
<stop offset="1" stop-color="#C11A1F"/>
</linearGradient>
<linearGradient id="paint6_linear_7114_1014" x1="1908.6" y1="275.997" x2="1929" y2="275.997" gradientUnits="userSpaceOnUse">
<stop stop-color="#E73531"/>
<stop offset="1" stop-color="#C11A1F"/>
</linearGradient>
<linearGradient id="paint7_linear_7114_1014" x1="1692.5" y1="383.995" x2="1715.6" y2="383.995" gradientUnits="userSpaceOnUse">
<stop stop-color="#E73531"/>
<stop offset="1" stop-color="#C11A1F"/>
</linearGradient>
</defs>
</svg>
